# xmcd
#
# Track frame offsets: 
#        150
#        47089
#        63297
#        71951
#        105226
#        114781
#        148172
#        157200
#        196900
#        207386
#        254812
#
# Disc length: 3892 seconds
#
# Revision: 1
# Processed by: cddbd v1.5.2PL0 Copyright (c) Steve Scherf et al.
# Submitted via: ExactAudioCopy v0.99pb4
#
DISCID=a80f320b
DTITLE=Aki Takase - Aki And The Good Boys: Live at Willisau Jazz Festi
DTITLE=val
DYEAR=2008
DGENRE=Jazz
TTITLE0=Hinz und Kunz 
TTITLE1=Die Nacht der 1000 Töne 
TTITLE2=Die Meistersinger von Nürnberg
TTITLE3=Egg of Fire 
TTITLE4=Phantom Power 
TTITLE5=Todays Ulysses 
TTITLE6=Zuviel Publikum 
TTITLE7=Umzug 
TTITLE8=Dreimal durch 
TTITLE9=City Planning 
TTITLE10=O Blues 
EXTD=YEAR: 2008
EXTT0=
EXTT1=
EXTT2=
EXTT3=
EXTT4=
EXTT5=
EXTT6=
EXTT7=
EXTT8=
EXTT9=
EXTT10=
PLAYORDER=
